# xmcd
#
# Track frame offsets:
#	150
#	36814
#	56336
#	91594
#	104476
#	121022
#	138726
#	152940
#	177993
#	219519
#	269925
#	292034
#
# Disc length: 4142 seconds
#
# Revision: 2
# Processed by: cddbd v1.5.2PL0 Copyright (c) Steve Scherf et al.
# Submitted via: audiograbber 1.83.01
#
DISCID=b4102c0c
DTITLE=Monokel - Butter and Beton
DYEAR=2012
DGENRE=
TTITLE0=Der Kindertraum
TTITLE1=Bye Bye Lübben City
TTITLE2=Amboss oder Hammer
TTITLE3=Drums
TTITLE4=Boogie Mobil
TTITLE5=Das Landei
TTITLE6=Oma Krüger
TTITLE7=Schwarze Marie
TTITLE8=Der Schreier
TTITLE9=Tell Me
TTITLE10=You Talk Too Much
TTITLE11=Lucille
EXTD=
EXTT0=
EXTT1=
EXTT2=
EXTT3=
EXTT4=
EXTT5=
EXTT6=
EXTT7=
EXTT8=
EXTT9=
EXTT10=
EXTT11=
PLAYORDER=
